<svg width="300" height="300" fill="none" xmlns="http://www.w3.org/2000/svg">
  <path fill-rule="evenodd" clip-rule="evenodd" d="M150 300c82.843 0 150-67.157 150-150S232.843 0 150 0 0 67.157 0 150s67.157 150 150 150z" fill="url(#paint0_linear)"/>
  <mask id="mask0" maskUnits="userSpaceOnUse" x="0" y="0" width="300" height="300">
    <path fill-rule="evenodd" clip-rule="evenodd" d="M150 300c82.843 0 150-67.157 150-150S232.843 0 150 0 0 67.157 0 150s67.157 150 150 150z" fill="#fff"/>
  </mask>
  <g mask="url(#mask0)">
    <path d="M222.5 159.5c8.112-26.941 13.112-73-21-104.5-26.07-24.074-96.5-26.5-121 26-4.09 8.764 1.5 22.5 12.5 22 4.323-.197 7 13.5 9.5 22-3.5 34.5-34.682 35.137-50.5 61.5C32.5 219 56.5 267 114 267s90.463-47.596 108.5-107.5z" fill="url(#paint1_linear)"/>
    <path fill-rule="evenodd" clip-rule="evenodd" d="M242 238.425C249.333 252.549 253 304 253 304H47s3.667-51.451 11-65.575C69 217.239 150 190 150 190s81 27.239 92 48.425z" fill="url(#paint2_linear)"/>
    <path fill-rule="evenodd" clip-rule="evenodd" d="M174 202s-12.766 7-24.51 7c-11.745 0-23.49-7-23.49-7v-22c-2.992.534-5.287.454-7.642.454C94.371 180.452 85.325 145.511 90 103c3 0 10 0 20-14-2.5 19.5 26.5 16.5 37.5 1-5.5 18.5 9 31 21.5 23.5 24.511-14.707 30.021 30.126 5 30.5v58z" fill="url(#paint3_linear)"/>
    <mask id="mask1" maskUnits="userSpaceOnUse" x="88" y="89" width="103" height="120">
      <path fill-rule="evenodd" clip-rule="evenodd" d="M174 202s-12.766 7-24.51 7c-11.745 0-23.49-7-23.49-7v-22c-2.992.534-5.287.454-7.642.454C94.371 180.452 85.325 145.511 90 103c3 0 10 0 20-14-2.5 19.5 26.5 16.5 37.5 1-5.5 18.5 9 31 21.5 23.5 24.511-14.707 30.021 30.126 5 30.5v58z" fill="#fff"/>
    </mask>
    <g mask="url(#mask1)">
      <path d="M126 180c20-3.5 35-13.5 35-13.5S148.5 188 126 188v-8z" fill="#FFD7B8" opacity=".782"/>
    </g>
    <path d="M150.033 207.975c7.227-.327 23.967-3.867 23.967-11.515V190c1.834 0 7.085 4.332 9.786 8 10.676 14.5-1.166 27.5-10.824 27.5-12.186 0-20.26-10.182-22.962-15.08-2.702 4.898-10.776 15.08-22.962 15.08-9.658 0-21.5-13-10.824-27.5 2.701-3.668 7.952-8 9.786-8v6.46c0 7.648 17.192 11.188 24.033 11.515z" fill="#fff"/>
    <path fill-rule="evenodd" clip-rule="evenodd" d="M150 240a4 4 0 1 0 0-8 4 4 0 0 0 0 8zm0 20a4 4 0 1 0 0-8 4 4 0 0 0 0 8zm4 16a4 4 0 1 1-8 0 4 4 0 0 1 8 0z" fill="url(#paint4_linear)"/>
  </g>
  <defs>
    <linearGradient id="paint0_linear" x1="300" y1="300" x2="300" gradientUnits="userSpaceOnUse">
      <stop stop-color="#FFC9B3"/>
      <stop offset="1" stop-color="#FFD2C2"/>
    </linearGradient>
    <linearGradient id="paint1_linear" x1="228.437" y1="38.589" x2="228.437" y2="267" gradientUnits="userSpaceOnUse">
      <stop stop-color="#130027"/>
      <stop offset="1" stop-color="#130017"/>
    </linearGradient>
    <linearGradient id="paint2_linear" x1="253" y1="304" x2="253" y2="190" gradientUnits="userSpaceOnUse">
      <stop stop-color="#E6864E"/>
      <stop offset="1" stop-color="#E67240"/>
    </linearGradient>
    <linearGradient id="paint3_linear" x1="88.811" y1="89" x2="88.811" y2="209" gradientUnits="userSpaceOnUse">
      <stop stop-color="#FFE0CC"/>
      <stop offset="1" stop-color="#FFEADB"/>
    </linearGradient>
    <linearGradient id="paint4_linear" x1="146" y1="232" x2="146" y2="280" gradientUnits="userSpaceOnUse">
      <stop stop-color="#130027"/>
      <stop offset="1" stop-color="#130017"/>
    </linearGradient>
  </defs>
</svg>
